<?xml version="1.0" standalone="no"?>
<!DOCTYPE svg PUBLIC "-//W3C//DTD SVG 20010904//EN"
 "http://www.w3.org/TR/2001/REC-SVG-20010904/DTD/svg10.dtd">
<svg version="1.0" xmlns="http://www.w3.org/2000/svg"
 width="512.000000pt" height="512.000000pt" viewBox="0 0 512.000000 512.000000"
 preserveAspectRatio="xMidYMid meet">

<g transform="translate(0.000000,512.000000) scale(0.100000,-0.100000)"
fill="#FF0000" stroke="none">
<path d="M2408 5104 c-42 -7 -107 -26 -145 -41 -81 -32 -2213 -1448 -2238
-1487 -55 -83 -9 -197 90 -225 44 -12 86 -1 148 39 26 16 50 30 52 30 3 0 5
-656 5 -1457 0 -1212 3 -1469 14 -1524 44 -207 209 -375 417 -424 52 -12 150
-15 542 -15 l477 0 0 680 c0 749 1 759 62 902 112 264 353 444 645 479 213 26
458 -55 621 -206 74 -68 150 -177 190 -273 61 -143 62 -153 62 -902 l0 -680
478 0 c391 0 489 3 541 15 208 49 373 217 417 424 11 55 14 312 14 1524 0 801
2 1457 4 1457 3 0 27 -14 54 -31 65 -40 109 -50 157 -34 94 33 133 140 80 221
-25 38 -2157 1455 -2237 1487 -134 53 -300 68 -450 41z m-427 -1294 c136 -42
245 -134 306 -257 l36 -73 237 0 237 0 37 74 c64 126 187 227 321 262 28 8 87
14 131 14 376 0 622 -407 445 -736 l-27 -50 32 -62 c153 -300 -39 -673 -375
-725 -214 -33 -442 87 -532 281 l-34 72 -235 0 -235 0 -33 -68 c-60 -125 -165
-219 -292 -262 -427 -144 -819 304 -616 702 l32 62 -27 50 c-146 271 -7 612
291 713 86 30 212 31 301 3z"/>
</g>
</svg>
